# xmcd
#
# Track frame offsets: 
#        150
#        16106
#        34347
#        49766
#        64903
#        79963
#        99706
#        114711
#        128361
#        142626
#
# Disc length: 2179 seconds
#
# Revision: 0
# Processed by: cddbd v1.5.2PL0 Copyright (c) Steve Scherf et al.
# Submitted via: ExactAudioCopy v1.3
#
DISCID=7d08810a
DTITLE=Shotgun Rider - Palo Duro
DYEAR=2018
DGENRE=Country
TTITLE0=Me And A Memory
TTITLE1=Steady As She Goes
TTITLE2=Bottom Of This Crown
TTITLE3=I'm Not Alright
TTITLE4=Nothin' At All
TTITLE5=Lucky Him
TTITLE6=Texas Rain
TTITLE7=Time Don't Turn
TTITLE8=Lovin' Up On You
TTITLE9=The Night Don't Love You
EXTD=
EXTT0=
EXTT1=
EXTT2=
EXTT3=
EXTT4=
EXTT5=
EXTT6=
EXTT7=
EXTT8=
EXTT9=
PLAYORDER=
